<svg width="330" height="293" viewBox="0 0 330 293" fill="none" xmlns="http://www.w3.org/2000/svg">
<g filter="url(#filter0_d_6_27)">
<path d="M96.1431 60.5823C103.99 65.3494 126.051 79.2591 129.723 81.5755C129.76 81.5991 129.779 81.6109 129.803 81.6252C130.096 81.7983 130.427 81.894 130.766 81.9035C130.794 81.9043 130.823 81.9043 130.881 81.9043H146.342H163.272C163.329 81.9043 163.357 81.9043 163.385 81.9035C163.722 81.8941 164.052 81.7994 164.342 81.6288C164.366 81.6147 164.391 81.5994 164.439 81.5689L164.439 81.5688C175.458 74.6757 183.924 69.0373 194.832 60.912C194.917 60.8486 194.959 60.817 195.014 60.7816C195.658 60.3641 196.587 60.3731 197.222 60.803C197.276 60.8394 197.301 60.8588 197.351 60.8975C202.338 64.7648 220.933 80.7185 229.757 109.693C237.952 136.605 236.069 145.684 234.147 172.584C232.683 193.06 228.293 206.223 222.44 219.387C219.565 225.851 206.355 245.745 194.416 258.183C193.445 259.195 192.96 259.701 192.883 259.805C191.785 261.292 192.892 263.196 194.728 262.978C194.857 262.963 195.477 262.806 196.717 262.493C204.26 260.589 214.811 257.662 222.44 254.488C230.698 251.053 231.22 251.563 242.927 244.25C251.296 238.579 253.171 236.938 261.952 226.699C266.342 220.849 270.671 215.545 275.123 207.686C289.811 181.753 291.22 175.509 291.22 133.095C291.22 92.1949 281.003 60.0482 251.82 26.4559L251.8 26.4323C251.739 26.3629 251.671 26.2965 251.601 26.2363L251.583 26.221C244.254 20.0448 225.599 4.69025 197.012 0.141299C196.952 0.131713 196.922 0.12692 196.88 0.122059C196.403 0.0666109 195.836 0.219483 195.451 0.507193C195.418 0.532419 195.405 0.543144 195.378 0.564594C189.42 5.42612 179.36 17.8419 163.903 24.8638C149.269 29.2515 141.952 29.2515 130.244 24.8638C116.285 20.6784 100.994 4.51587 95.8029 0.495257C95.7996 0.492674 95.8079 0.499133 95.7744 0.475342C95.4088 0.21541 94.8195 0.0659259 94.3741 0.120113C94.3334 0.12507 94.3135 0.12832 94.2738 0.134816L94.2738 0.134823C68.0146 4.42994 50.4552 18.6528 42.4161 25.1643C41.8962 25.5854 41.4158 25.9745 40.9757 26.3264C6.99589 55.3262 -9.12607e-06 99.4553 0 133.095C0.764732 156.496 1.91783 176.423 11.7073 201.836C17.4478 216.738 27.1612 233.462 30.7317 238.035C47.1113 259.012 59.5843 263.526 64.3904 264.726H155.122C162.147 265.897 163.903 261.314 163.903 258.876V222.312L163.903 122.856V114.081L141.952 114.081C130.244 114.081 125.854 118.469 125.854 133.095L125.854 149.183L125.854 219.387H83.4148C77.5815 219.387 72.7245 211.035 71.7075 209.149C69.4021 205.272 65.8538 195.985 64.3904 190.903C62.927 185.747 52.4769 156.055 55.6099 131.632C61.322 87.1028 79.5757 68.1995 94.0532 60.5163C94.1191 60.4813 94.152 60.4639 94.1989 60.442C94.7541 60.1832 95.4533 60.2035 95.9926 60.4941C96.0381 60.5186 96.0731 60.5398 96.1431 60.5823Z" fill="url(#paint0_linear_6_27)" shape-rendering="crispEdges"/>
</g>
<g filter="url(#filter1_d_6_27)">
<path d="M246.041 263.506C266.269 252.983 288.38 222.599 299.113 205.087C299.645 204.218 301 204.604 301 205.623V265C301 265.552 300.558 266 300.006 266H246.559C245.417 266 245.028 264.032 246.041 263.506Z" fill="url(#paint1_linear_6_27)" fill-opacity="0.62" shape-rendering="crispEdges"/>
</g>
<defs>
<filter id="filter0_d_6_27" x="0" y="0.10907" width="320.22" height="291.805" filterUnits="userSpaceOnUse" color-interpolation-filters="sRGB">
<feFlood flood-opacity="0" result="BackgroundImageFix"/>
<feColorMatrix in="SourceAlpha" type="matrix" values="0 0 0 0 0 0 0 0 0 0 0 0 0 0 0 0 0 0 127 0" result="hardAlpha"/>
<feOffset dx="21" dy="19"/>
<feGaussianBlur stdDeviation="4"/>
<feComposite in2="hardAlpha" operator="out"/>
<feColorMatrix type="matrix" values="0 0 0 0 0 0 0 0 0 0 0 0 0 0 0 0 0 0 0.3 0"/>
<feBlend mode="normal" in2="BackgroundImageFix" result="effect1_dropShadow_6_27"/>
<feBlend mode="normal" in="SourceGraphic" in2="effect1_dropShadow_6_27" result="shape"/>
</filter>
<filter id="filter1_d_6_27" x="245.457" y="204.606" width="84.5432" height="88.3942" filterUnits="userSpaceOnUse" color-interpolation-filters="sRGB">
<feFlood flood-opacity="0" result="BackgroundImageFix"/>
<feColorMatrix in="SourceAlpha" type="matrix" values="0 0 0 0 0 0 0 0 0 0 0 0 0 0 0 0 0 0 127 0" result="hardAlpha"/>
<feOffset dx="21" dy="19"/>
<feGaussianBlur stdDeviation="4"/>
<feComposite in2="hardAlpha" operator="out"/>
<feColorMatrix type="matrix" values="0 0 0 0 0 0 0 0 0 0 0 0 0 0 0 0 0 0 0.3 0"/>
<feBlend mode="normal" in2="BackgroundImageFix" result="effect1_dropShadow_6_27"/>
<feBlend mode="normal" in="SourceGraphic" in2="effect1_dropShadow_6_27" result="shape"/>
</filter>
<linearGradient id="paint0_linear_6_27" x1="17.561" y1="10.238" x2="296.946" y2="237.095" gradientUnits="userSpaceOnUse">
<stop stop-color="#005897"/>
<stop offset="0.546513" stop-color="#226A9D" stop-opacity="0.676332"/>
<stop offset="0.913028" stop-color="#4CA5E6" stop-opacity="0.47"/>
<stop offset="0.963542" stop-color="#72B6E7" stop-opacity="0"/>
</linearGradient>
<linearGradient id="paint1_linear_6_27" x1="302.449" y1="264.544" x2="261.686" y2="223.977" gradientUnits="userSpaceOnUse">
<stop stop-color="#09132E"/>
<stop offset="0.591487" stop-color="#104BA3" stop-opacity="0.51"/>
<stop offset="1" stop-color="#394157" stop-opacity="0"/>
</linearGradient>
</defs>
</svg>
