<svg width="64" height="58" viewBox="0 0 64 58" fill="none" xmlns="http://www.w3.org/2000/svg">
<path d="M21.9308 13.7542C23.7566 14.8783 26.8507 16.8189 28.0882 17.596C28.1357 17.6258 28.1594 17.6407 28.1836 17.6549C28.4753 17.8269 28.8047 17.9218 29.1432 17.9312C29.1712 17.932 29.2 17.932 29.2574 17.932H32.1608H35.3912C35.4471 17.932 35.475 17.932 35.503 17.9312C35.8386 17.9218 36.1724 17.8258 36.4617 17.6555C36.4858 17.6413 36.5084 17.6271 36.5535 17.5988C38.4426 16.4142 40.0131 15.3751 41.8278 14.0615C41.8818 14.0224 41.9088 14.0028 41.9668 13.9666C42.6156 13.5614 43.6706 13.6209 44.2698 14.0966C44.3233 14.139 44.299 14.1169 44.3087 14.1257C45.9714 15.6418 48.9295 18.9029 50.4925 24.0161C52.2935 29.9081 51.8798 31.8959 51.4573 37.7853C51.1357 42.2684 50.1709 45.1503 48.8844 48.0322C48.5596 48.76 47.6342 50.2651 46.4551 51.9259C45.3295 53.5113 47.0883 56.4618 48.8844 55.7174C50.6993 54.9652 50.8141 55.077 53.3869 53.4759C55.226 52.2342 55.6382 51.8748 57.5678 49.6333C58.5327 48.3524 59.4841 47.1912 60.4623 45.4705C63.6903 39.7928 64 38.4258 64 29.1395C64 20.226 61.775 13.2113 55.429 5.89309L55.4116 5.87312C55.3504 5.80366 55.2772 5.73172 55.2067 5.67175L55.1874 5.65553C53.575 4.30658 49.7607 1.25468 44.0005 0.153982C43.9888 0.151736 44.0182 0.15735 43.9717 0.150712C43.4976 0.0830052 42.7611 0.295294 42.3958 0.604906C42.3599 0.635262 42.4284 0.571511 42.401 0.597012C41.0541 1.85182 38.9906 4.09927 36.0201 5.44365C32.804 6.4043 31.196 6.4043 28.6231 5.44365C25.9276 4.6385 23.0062 1.80889 21.563 0.536884C21.516 0.495475 21.6335 0.598997 21.5978 0.570322C21.2491 0.290277 20.4938 0.0856648 20.0515 0.151393C20.0062 0.158123 20.1038 0.139012 20.0647 0.146656C14.6553 1.20546 11.0208 4.1383 9.32158 5.50944C9.20731 5.60164 9.10174 5.68683 9.00503 5.76387C1.53745 12.113 -2.00559e-06 21.7746 0 29.1395C0.168061 34.263 0.421473 38.6258 2.57286 44.1896C3.83441 47.4523 5.96909 51.114 6.75376 52.1151C10.3534 56.7077 13.0946 57.696 14.1507 57.9589H34.0904C35.6342 58.2151 36.0201 57.2117 36.0201 56.678V48.6727V34.263V32.3417L31.196 32.3417C28.6231 32.3417 27.6583 33.3023 27.6583 36.5045L27.6583 40.0269V48.0322H18.3317C17.0497 48.0322 15.9823 46.2037 15.7588 45.7907C15.2522 44.942 14.4724 42.9088 14.1507 41.796C13.8291 40.6673 11.5326 34.1665 12.2211 28.8193C13.372 19.881 16.8398 15.6587 19.8607 13.7218C19.8756 13.7123 19.8383 13.7362 19.8872 13.7086C20.4188 13.4083 21.2849 13.4004 21.822 13.6909C21.8713 13.7176 21.8911 13.7298 21.9308 13.7542Z" fill="url(#paint0_linear_2_9)"/>
<defs>
<linearGradient id="paint0_linear_2_9" x1="3.8593" y1="2.2415" x2="65.0745" y2="52.1349" gradientUnits="userSpaceOnUse">
<stop stop-color="#005897"/>
<stop offset="0.546513" stop-color="#226A9D" stop-opacity="0.676332"/>
<stop offset="0.913028" stop-color="#4CA5E6" stop-opacity="0.47"/>
<stop offset="0.963542" stop-color="#72B6E7" stop-opacity="0"/>
</linearGradient>
</defs>
</svg>
